<svg xmlns="http://www.w3.org/2000/svg" width="32" height="19.989" viewBox="0 0 32 19.989"><path d="M9.251 0a11.964 11.964 0 0 1 2.56.249 5.571 5.571 0 0 1 1.982.809 3.761 3.761 0 0 1 1.28 1.5 5.279 5.279 0 0 1 .451 2.3 4.3 4.3 0 0 1-.674 2.472 4.882 4.882 0 0 1-2 1.619 4.684 4.684 0 0 1 2.7 1.826 5.466 5.466 0 0 1 .887 3.15 5.442 5.442 0 0 1-.558 2.572 4.847 4.847 0 0 1-1.555 1.794 6.733 6.733 0 0 1-2.233 1.017 9.848 9.848 0 0 1-2.552.339H0V.006h9.251zm13.338 16.215a3.474 3.474 0 0 0 2.524.857 3.471 3.471 0 0 0 2.038-.6 2.492 2.492 0 0 0 1.043-1.256h3.449a6.481 6.481 0 0 1-2.532 3.664A7.4 7.4 0 0 1 25 19.989a8.2 8.2 0 0 1-3.03-.538 6.489 6.489 0 0 1-2.29-1.525 6.921 6.921 0 0 1-1.435-2.369 8.708 8.708 0 0 1-.5-3.03 8.03 8.03 0 0 1 .538-2.971 7.161 7.161 0 0 1 1.5-2.392 7.264 7.264 0 0 1 2.313-1.595 7.183 7.183 0 0 1 2.971-.578 6.694 6.694 0 0 1 3.17.7 6.319 6.319 0 0 1 2.213 1.874 7.276 7.276 0 0 1 1.25 2.687 10.34 10.34 0 0 1 .279 3.17H21.731a4.024 4.024 0 0 0 .957 2.751zm-13.657.066a5.635 5.635 0 0 0 1.21-.124 3.1 3.1 0 0 0 1.017-.4 1.922 1.922 0 0 0 .7-.778 2.712 2.712 0 0 0 .259-1.276 2.557 2.557 0 0 0-.851-2.153 3.721 3.721 0 0 0-2.253-.638H4.32v5.4h4.612zm18.143-7.53a2.925 2.925 0 0 0-2.209-.792 3.3 3.3 0 0 0-1.555.319 2.854 2.854 0 0 0-.987.778 2.792 2.792 0 0 0-.522 1 4.521 4.521 0 0 0-.179.937h6.35a3.824 3.824 0 0 0-.9-2.253zM8.693 7.926a3.1 3.1 0 0 0 1.9-.55 2.057 2.057 0 0 0 .738-1.784 2.342 2.342 0 0 0-.239-1.126 1.794 1.794 0 0 0-.666-.682 2.749 2.749 0 0 0-.957-.345 5.889 5.889 0 0 0-1.116-.1H4.306v4.587h4.387zm12.131-6.61h7.955v1.938h-7.955V1.3z" fill="#474746"/></svg>