<svg xmlns="http://www.w3.org/2000/svg" width="32" height="32" viewBox="0 0 32 32"><path d="M16 0c-4.346 0-4.89.02-6.6.1a11.8 11.8 0 0 0-3.88.74 7.815 7.815 0 0 0-2.834 1.846A7.773 7.773 0 0 0 .84 5.52 11.746 11.746 0 0 0 .1 9.4C.016 11.11 0 11.654 0 16s.02 4.89.1 6.6a11.787 11.787 0 0 0 .74 3.88 7.815 7.815 0 0 0 1.846 2.834A7.773 7.773 0 0 0 5.52 31.16a11.746 11.746 0 0 0 3.88.74c1.706.08 2.25.1 6.6.1s4.89-.02 6.6-.1a11.787 11.787 0 0 0 3.884-.744 8.187 8.187 0 0 0 4.68-4.68A11.746 11.746 0 0 0 31.9 22.6c.08-1.706.1-2.25.1-6.6s-.02-4.89-.1-6.6a11.787 11.787 0 0 0-.74-3.88 7.815 7.815 0 0 0-1.846-2.834A7.773 7.773 0 0 0 26.48.84 11.746 11.746 0 0 0 22.6.1C20.89.016 20.346 0 16 0zm0 2.88c4.272 0 4.78.02 6.466.1a8.837 8.837 0 0 1 2.97.552 4.943 4.943 0 0 1 1.84 1.2 4.943 4.943 0 0 1 1.2 1.84 8.838 8.838 0 0 1 .552 2.97c.076 1.688.094 2.194.094 6.466s-.02 4.78-.1 6.466a8.991 8.991 0 0 1-.56 2.97 5.079 5.079 0 0 1-1.2 1.84 5.008 5.008 0 0 1-1.84 1.2 8.889 8.889 0 0 1-2.98.552c-1.7.076-2.2.094-6.48.094s-4.78-.02-6.48-.1a9.044 9.044 0 0 1-2.98-.56 4.98 4.98 0 0 1-1.84-1.2 4.895 4.895 0 0 1-1.2-1.84 9.044 9.044 0 0 1-.56-2.98c-.06-1.68-.08-2.2-.08-6.46s.02-4.78.08-6.48a9.044 9.044 0 0 1 .56-2.98 4.743 4.743 0 0 1 1.2-1.84 4.743 4.743 0 0 1 1.84-1.2 8.89 8.89 0 0 1 2.96-.56c1.7-.06 2.2-.08 6.48-.08zm0 4.9A8.216 8.216 0 1 0 24.216 16 8.215 8.215 0 0 0 16 7.784zm0 13.55A5.334 5.334 0 1 1 21.334 16 5.334 5.334 0 0 1 16 21.334zM26.46 7.46a1.92 1.92 0 1 1-1.92-1.92 1.92 1.92 0 0 1 1.92 1.92z" fill="#474746"/></svg>