<svg xmlns="http://www.w3.org/2000/svg" width="32" height="27.721" viewBox="0 0 32 27.721"><path d="M31.968 6.416q-.21 4.678-6.523 12.814-6.537 8.492-11.054 8.492c-1.879 0-3.438-1.723-4.738-5.173L7.1 13.062Q5.661 7.893 4.018 7.891A9.852 9.852 0 0 0 1.509 9.4L0 7.457q2.369-2.088 4.668-4.17Q7.825.553 9.405.409q3.736-.36 4.6 5.117.927 5.907 1.295 7.343 1.079 4.9 2.369 4.9 1 0 3.018-3.178a12.5 12.5 0 0 0 2.151-4.838q.288-2.744-2.153-2.747a5.8 5.8 0 0 0-2.369.52C19.892 2.369 22.89-.153 27.328.007c3.3.08 4.838 2.219 4.658 6.4z" fill="#474746"/></svg>