<svg xmlns="http://www.w3.org/2000/svg" width="32" height="32" viewBox="0 0 32 32"><path d="M27.264 27.27h-4.74v-7.426c0-1.772-.036-4.05-2.468-4.05-2.47 0-2.848 1.928-2.848 3.92v7.556h-4.74V12h4.552v2.08h.06a5 5 0 0 1 4.494-2.466c4.8 0 5.69 3.16 5.69 7.274v8.376zM7.116 9.91a2.752 2.752 0 1 1 2.752-2.754A2.751 2.751 0 0 1 7.116 9.91zm2.376 17.36H4.74V12h4.752zM29.632 0H2.36A2.333 2.333 0 0 0 0 2.306v27.388A2.333 2.333 0 0 0 2.36 32h27.27A2.342 2.342 0 0 0 32 29.694V2.306A2.342 2.342 0 0 0 29.63 0z" fill="#474746"/></svg>